<svg xmlns="http://www.w3.org/2000/svg" width="234.705" height="18.964" viewBox="0 0 234.705 18.964">
  <g id="Grupo_7" data-name="Grupo 7" transform="translate(-525 -1260)">
    <g id="Grupo_6" data-name="Grupo 6" transform="translate(208 -47)">
      <g id="Elipse_18" data-name="Elipse 18" transform="translate(517 1307)" fill="#fff" stroke="#184387" stroke-width="1">
        <ellipse cx="17" cy="5" rx="17" ry="5" stroke="none"/>
        <ellipse cx="17" cy="5" rx="16.5" ry="4.5" fill="none"/>
      </g>
      <g id="Elipse_19" data-name="Elipse 19" transform="translate(518.715 1308.036) rotate(14)" fill="#fff" stroke="#184387" stroke-width="1">
        <ellipse cx="17" cy="5" rx="17" ry="5" stroke="none"/>
        <ellipse cx="17" cy="5" rx="16.5" ry="4.5" fill="none"/>
      </g>
      <g id="Elipse_20" data-name="Elipse 20" transform="translate(511 1308)" fill="#fff" stroke="#184387" stroke-width="1">
        <circle cx="5" cy="5" r="5" stroke="none"/>
        <circle cx="5" cy="5" r="4.5" fill="none"/>
      </g>
    </g>
    <g id="Uni찾o_5" data-name="Uni찾o 5" transform="translate(-2305 1263) rotate(180)" fill="#fff">
      <path d="M -2835 1.499799847602844 L -2850.00048828125 1.499799847602844 L -2858.50048828125 1.499799847602844 L -2858.50048828125 -7.500100135803223 L -2850.00048828125 -7.500100135803223 L -2835 -7.500100135803223 C -2832.5185546875 -7.500100135803223 -2830.499755859375 -5.48123025894165 -2830.499755859375 -2.999700307846069 C -2830.499755859375 -0.5186702013015747 -2832.5185546875 1.499799847602844 -2835 1.499799847602844 Z" stroke="none"/>
      <path d="M -2835 0.9997997879981995 C -2832.794189453125 0.9997997879981995 -2830.999755859375 -0.794370174407959 -2830.999755859375 -2.999700307846069 C -2830.999755859375 -5.205530166625977 -2832.794189453125 -7.000100135803223 -2835 -7.000100135803223 L -2858.00048828125 -7.000100135803223 L -2858.00048828125 0.9997997879981995 L -2835 0.9997997879981995 M -2835 1.999799847602844 L -2859.00048828125 1.999799847602844 L -2859.00048828125 -8.000100135803223 L -2835 -8.000100135803223 C -2832.23876953125 -8.000100135803223 -2829.999755859375 -5.761800289154053 -2829.999755859375 -2.999700307846069 C -2829.999755859375 -0.2385002076625824 -2832.23876953125 1.999799847602844 -2835 1.999799847602844 Z" stroke="none" fill="#0e3573"/>
    </g>
    <rect id="Ret창ngulo_19" data-name="Ret창ngulo 19" width="165" height="1" transform="translate(554 1265)" fill="#0e3573"/>
  </g>
</svg>
