<?xml version="1.0" standalone="no"?>
<!DOCTYPE svg PUBLIC "-//W3C//DTD SVG 20010904//EN"
 "http://www.w3.org/TR/2001/REC-SVG-20010904/DTD/svg10.dtd">
<svg version="1.0" xmlns="http://www.w3.org/2000/svg"
 width="922.000000pt" height="764.000000pt" viewBox="0 0 922.000000 764.000000"
 preserveAspectRatio="xMidYMid meet">
<metadata>
Created by potrace 1.16, written by Peter Selinger 2001-2019
</metadata>
<g transform="translate(0.000000,764.000000) scale(0.100000,-0.100000)"
fill="#FFFFFF" stroke="none">
<path d="M2182 7621 c-159 -39 -307 -144 -394 -279 -71 -110 -99 -183 -123
-321 -19 -107 -19 -186 0 -297 77 -437 414 -758 795 -757 185 1 315 56 450
192 97 98 154 194 192 327 20 69 23 100 22 244 0 151 -3 173 -28 255 -102 334
-333 565 -634 636 -101 23 -184 23 -280 0z"/>
<path d="M3749 7341 c-198 -53 -367 -246 -415 -470 -18 -85 -18 -247 0 -332
69 -322 359 -537 641 -474 167 37 302 149 385 320 53 108 72 197 72 325 -1
307 -178 564 -434 631 -88 23 -163 23 -249 0z"/>
<path d="M752 6491 c-123 -31 -215 -84 -308 -175 -66 -66 -89 -97 -122 -166
-67 -143 -84 -266 -58 -418 48 -274 224 -515 478 -652 159 -86 286 -115 471
-108 100 4 138 10 207 34 200 67 345 215 416 424 27 79 27 308 0 400 -47 157
-132 296 -253 411 -124 118 -263 199 -409 240 -112 31 -320 36 -422 10z"/>
<path d="M7015 5943 c-372 -46 -704 -151 -1070 -339 -163 -83 -328 -181 -459
-271 -60 -41 -115 -77 -123 -80 -7 -3 -37 15 -66 39 -192 162 -433 306 -701
417 -184 77 -422 143 -651 182 -152 25 -494 36 -648 20 -474 -48 -877 -230
-1177 -531 -287 -288 -453 -651 -527 -1155 -24 -170 -25 -649 0 -820 60 -412
211 -775 494 -1190 460 -672 1269 -1400 2208 -1985 255 -160 383 -230 393
-217 21 26 112 219 155 327 72 183 116 366 133 558 l6 72 -41 0 c-47 0 -49 6
-21 52 11 18 20 50 20 72 0 35 -2 38 -22 32 -13 -3 -55 -11 -95 -18 -164 -26
-332 46 -408 177 -14 23 -34 50 -45 60 -34 30 -24 56 45 125 79 78 91 111 105
285 5 66 15 137 22 159 15 48 77 118 151 171 39 28 56 47 57 63 0 42 -63 150
-137 232 -13 13 -19 27 -15 31 4 4 33 3 65 -1 93 -13 221 -81 326 -172 47 -41
94 -51 105 -22 9 23 6 282 -3 332 -5 23 -5 45 -1 47 10 6 104 -26 160 -55 69
-35 171 -144 207 -220 17 -36 34 -73 37 -82 4 -14 16 -18 49 -18 132 0 292
-107 428 -285 57 -75 145 -219 193 -314 l37 -72 49 43 c28 24 49 52 50 63 1
55 62 95 146 95 49 0 55 2 44 15 -14 17 -18 106 -7 147 8 31 42 52 100 62 58
11 294 9 519 -5 247 -14 355 -9 423 21 70 30 149 94 201 161 45 59 116 184
129 228 4 14 23 40 41 59 44 45 74 127 74 202 0 149 -79 198 -428 266 -101 19
-225 48 -275 65 -110 35 -293 125 -362 177 -47 35 -50 41 -50 83 -1 84 -82
184 -226 280 -125 84 -227 109 -440 109 l-109 0 -7 28 c-4 15 -8 110 -8 212 0
149 3 195 17 239 10 30 16 56 14 58 -5 5 -95 -63 -127 -96 -14 -14 -39 -45
-56 -68 -17 -23 -33 -39 -37 -36 -3 3 -6 27 -6 52 0 66 -32 171 -69 229 -51
79 -56 81 -75 20 -30 -93 -90 -182 -177 -260 -44 -40 -102 -105 -128 -144 -57
-84 -160 -284 -190 -370 -19 -50 -32 -68 -77 -103 -67 -52 -116 -114 -168
-210 -22 -39 -98 -145 -170 -234 -270 -337 -303 -388 -409 -632 -116 -264
-550 -684 -1047 -1011 -70 -46 -132 -84 -138 -84 -21 0 -259 199 -378 316
-174 171 -334 362 -437 522 -15 23 -38 59 -51 80 -40 61 -125 221 -163 307
-185 416 -275 1041 -208 1440 119 706 634 1204 1350 1306 112 16 352 16 465 0
525 -74 1145 -369 1488 -708 55 -55 88 -80 97 -75 7 4 65 62 130 129 185 194
339 308 550 409 288 137 633 205 972 191 586 -25 1082 -369 1371 -952 124
-251 189 -489 213 -782 30 -357 -53 -795 -225 -1198 -108 -253 -300 -578 -483
-818 -24 -31 -41 -57 -37 -57 3 0 41 37 83 83 335 359 621 765 863 1227 378
721 485 1420 295 1941 -127 348 -384 702 -688 945 -273 218 -625 370 -969 419
-95 13 -364 18 -445 8z"/>
<path d="M505 4884 c-268 -56 -436 -207 -491 -440 -32 -135 1 -314 83 -453 35
-59 133 -169 193 -216 70 -56 197 -119 305 -152 46 -13 93 -18 200 -17 125 0
148 2 215 26 109 38 167 74 241 147 116 117 166 252 156 426 -22 373 -390 689
-795 684 -48 -1 -96 -3 -107 -5z"/>
</g>
</svg>
