<svg version="1.0" xmlns="http://www.w3.org/2000/svg"
 width="153.000000pt" height="150.000000pt" viewBox="0 0 153.000000 150.000000"
 preserveAspectRatio="xMidYMid meet">
<g transform="translate(0.000000,150.000000) scale(0.100000,-0.100000)"
fill="#22478c" stroke="none">
<path d="M705 1346 c-167 -74 -96 -356 89 -356 41 0 94 35 119 78 28 47 26
125 -3 182 -26 51 -39 63 -95 90 -47 23 -69 24 -110 6z"/>
<path d="M1095 1264 c-48 -25 -63 -43 -81 -96 -40 -121 29 -245 144 -255 52
-5 97 18 135 69 25 34 34 122 17 172 -33 100 -135 152 -215 110z"/>
<path d="M331 1113 c-25 -25 -42 -52 -46 -76 -24 -129 116 -264 234 -226 80
25 116 89 100 175 -10 56 -29 85 -83 128 -30 25 -48 31 -101 34 -64 4 -65 4
-104 -35z"/>
<path d="M775 866 c-100 -46 -142 -122 -131 -240 7 -82 -10 -159 -51 -218 -14
-20 -29 -55 -34 -78 -38 -168 140 -313 296 -241 40 18 135 106 183 169 33 43
45 49 160 78 97 25 160 51 196 82 29 26 66 113 66 158 0 59 -45 142 -98 179
-41 28 -49 30 -151 32 -115 1 -113 1 -245 72 -71 38 -121 40 -191 7z"/>
<path d="M267 755 c-50 -17 -74 -40 -88 -82 -38 -116 60 -243 188 -243 116 0
184 98 142 207 -33 88 -157 149 -242 118z"/>
</g>
</svg>
